<svg xmlns="http://www.w3.org/2000/svg" xmlns:xlink="http://www.w3.org/1999/xlink" width="64" zoomAndPan="magnify" viewBox="0 0 48 48" height="64" preserveAspectRatio="xMidYMid meet" version="1.0"><path fill="#000000" d="M 10.1875 17.605469 C 9.632812 17.785156 9.277344 18.277344 9.289062 18.847656 C 9.300781 20.03125 10.726562 20.558594 11.5 19.675781 C 11.945312 19.171875 11.929688 18.46875 11.464844 17.941406 C 11.199219 17.632812 10.59375 17.476562 10.1875 17.605469 Z M 10.1875 17.605469 " fill-opacity="1" fill-rule="nonzero"/><path fill="#000000" d="M 13.667969 18.914062 C 12.902344 19.148438 12.617188 20.015625 13.09375 20.648438 C 13.355469 20.988281 13.972656 21.132812 14.378906 20.945312 C 14.90625 20.699219 15.15625 20.070312 14.929688 19.523438 C 14.742188 19.0625 14.144531 18.769531 13.667969 18.914062 Z M 13.667969 18.914062 " fill-opacity="1" fill-rule="nonzero"/><path fill="#000000" d="M 9.46875 20.746094 C 8.910156 20.9375 8.527344 21.28125 8.28125 21.800781 L 8.136719 22.109375 L 8.121094 23.816406 L 8.109375 25.527344 L 9.667969 25.539062 C 10.53125 25.550781 11.234375 25.550781 11.234375 25.550781 C 11.234375 25.542969 11.203125 25.464844 11.164062 25.378906 C 11.027344 25.042969 11.105469 24.550781 11.339844 24.296875 C 11.503906 24.117188 11.867188 23.96875 12.15625 23.96875 C 12.351562 23.96875 12.480469 24 12.675781 24.101562 L 12.9375 24.234375 L 12.925781 23.148438 C 12.910156 22.082031 12.90625 22.058594 12.785156 21.796875 C 12.613281 21.425781 12.207031 21.015625 11.835938 20.832031 L 11.53125 20.6875 L 10.613281 20.671875 C 9.828125 20.664062 9.664062 20.671875 9.46875 20.746094 Z M 9.46875 20.746094 " fill-opacity="1" fill-rule="nonzero"/><path fill="#000000" d="M 18.304688 22.960938 L 18.304688 24.933594 L 18.953125 24.933594 L 18.929688 23.476562 C 18.914062 22.679688 18.917969 22.039062 18.933594 22.058594 C 18.957031 22.078125 19.386719 22.730469 19.890625 23.5 L 20.808594 24.910156 L 21.121094 24.925781 L 21.429688 24.9375 L 21.429688 20.984375 L 20.828125 20.984375 L 20.839844 22.386719 C 20.851562 23.15625 20.84375 23.785156 20.832031 23.785156 C 20.816406 23.78125 20.398438 23.152344 19.894531 22.386719 L 18.984375 20.984375 L 18.304688 20.984375 Z M 18.304688 22.960938 " fill-opacity="1" fill-rule="nonzero"/><path fill="#000000" d="M 29.511719 22.960938 L 29.511719 24.933594 L 30.0625 24.933594 L 30.0625 20.984375 L 29.511719 20.984375 Z M 29.511719 22.960938 " fill-opacity="1" fill-rule="nonzero"/><path fill="#000000" d="M 33.6875 22.960938 L 33.6875 24.933594 L 35.753906 24.933594 L 35.753906 24.382812 L 34.285156 24.382812 L 34.285156 20.984375 L 33.6875 20.984375 Z M 33.6875 22.960938 " fill-opacity="1" fill-rule="nonzero"/><path fill="#000000" d="M 36.148438 21.164062 C 36.019531 21.300781 36.039062 21.53125 36.1875 21.660156 C 36.339844 21.789062 36.445312 21.792969 36.601562 21.667969 C 36.75 21.550781 36.765625 21.304688 36.628906 21.167969 C 36.507812 21.050781 36.253906 21.050781 36.148438 21.164062 Z M 36.148438 21.164062 " fill-opacity="1" fill-rule="nonzero"/><path fill="#000000" d="M 27.71875 21.765625 L 27.71875 22.132812 L 27.261719 22.132812 L 27.261719 22.636719 L 27.714844 22.636719 L 27.730469 23.574219 C 27.742188 24.597656 27.75 24.636719 28.050781 24.855469 C 28.183594 24.953125 28.660156 25.011719 28.929688 24.960938 C 29.097656 24.929688 29.097656 24.929688 29.097656 24.691406 L 29.097656 24.445312 L 28.808594 24.464844 C 28.53125 24.484375 28.507812 24.472656 28.417969 24.359375 C 28.320312 24.242188 28.316406 24.179688 28.316406 23.4375 L 28.316406 22.636719 L 28.960938 22.636719 L 28.960938 22.132812 L 28.316406 22.132812 L 28.316406 21.398438 L 27.71875 21.398438 Z M 27.71875 21.765625 " fill-opacity="1" fill-rule="nonzero"/><path fill="#000000" d="M 13.378906 21.585938 C 13.40625 21.621094 13.460938 21.761719 13.503906 21.898438 C 13.5625 22.105469 13.578125 22.398438 13.578125 23.550781 L 13.578125 24.957031 L 14.109375 25.484375 C 14.398438 25.773438 14.679688 26.089844 14.730469 26.183594 C 14.839844 26.398438 14.847656 26.894531 14.742188 27.105469 C 14.703125 27.1875 14.429688 27.492188 14.140625 27.785156 L 13.613281 28.316406 L 13.632812 28.808594 C 13.644531 29.285156 13.648438 29.308594 13.773438 29.414062 C 13.894531 29.515625 13.9375 29.527344 14.453125 29.527344 C 14.972656 29.527344 15.007812 29.519531 15.109375 29.414062 C 15.238281 29.292969 15.246094 29.199219 15.324219 27.371094 C 15.347656 26.730469 15.394531 26.164062 15.417969 26.117188 C 15.445312 26.074219 15.523438 26.023438 15.597656 26.003906 C 15.671875 25.988281 15.765625 25.9375 15.8125 25.890625 C 15.890625 25.800781 15.894531 25.671875 15.894531 24.226562 L 15.894531 22.660156 L 15.777344 22.40625 C 15.609375 22.054688 15.410156 21.839844 15.101562 21.6875 C 14.851562 21.5625 14.800781 21.558594 14.082031 21.539062 C 13.453125 21.527344 13.335938 21.535156 13.378906 21.585938 Z M 13.378906 21.585938 " fill-opacity="1" fill-rule="nonzero"/><path fill="#000000" d="M 22.761719 22.128906 C 22.410156 22.234375 22.132812 22.496094 21.960938 22.863281 C 21.820312 23.175781 21.824219 23.902344 21.96875 24.222656 C 22.1875 24.695312 22.539062 24.933594 23.0625 24.96875 C 23.503906 24.996094 23.832031 24.902344 24.105469 24.652344 C 24.226562 24.550781 24.320312 24.453125 24.320312 24.429688 C 24.320312 24.410156 24.246094 24.335938 24.15625 24.269531 L 23.992188 24.144531 L 23.78125 24.296875 C 23.601562 24.425781 23.519531 24.453125 23.265625 24.464844 C 23.011719 24.480469 22.945312 24.464844 22.804688 24.375 C 22.644531 24.269531 22.4375 23.933594 22.4375 23.777344 C 22.4375 23.699219 22.507812 23.695312 23.417969 23.695312 L 24.394531 23.695312 L 24.363281 23.3125 C 24.316406 22.703125 24.0625 22.316406 23.601562 22.152344 C 23.414062 22.085938 22.945312 22.074219 22.761719 22.128906 Z M 23.480469 22.683594 C 23.632812 22.777344 23.710938 22.886719 23.769531 23.101562 L 23.8125 23.234375 L 22.4375 23.234375 L 22.507812 23.066406 C 22.59375 22.855469 22.65625 22.78125 22.828125 22.675781 C 23.007812 22.570312 23.296875 22.570312 23.480469 22.683594 Z M 23.480469 22.683594 " fill-opacity="1" fill-rule="nonzero"/><path fill="#000000" d="M 31.6875 22.136719 C 31.605469 22.160156 31.476562 22.242188 31.394531 22.316406 C 31.308594 22.394531 31.242188 22.453125 31.238281 22.453125 C 31.230469 22.453125 31.238281 22.378906 31.246094 22.292969 L 31.265625 22.132812 L 30.703125 22.132812 L 30.703125 24.933594 L 31.300781 24.933594 L 31.300781 24.039062 C 31.300781 23.070312 31.324219 22.9375 31.542969 22.734375 C 31.6875 22.601562 32.023438 22.554688 32.21875 22.636719 C 32.492188 22.746094 32.519531 22.871094 32.519531 23.957031 L 32.519531 24.933594 L 33.09375 24.933594 L 33.09375 23.910156 C 33.09375 23.347656 33.070312 22.8125 33.046875 22.71875 C 32.980469 22.492188 32.792969 22.273438 32.5625 22.175781 C 32.367188 22.082031 31.933594 22.0625 31.6875 22.136719 Z M 31.6875 22.136719 " fill-opacity="1" fill-rule="nonzero"/><path fill="#000000" d="M 38.109375 22.175781 C 38.003906 22.222656 37.890625 22.308594 37.859375 22.359375 C 37.769531 22.496094 37.742188 22.476562 37.765625 22.292969 L 37.785156 22.132812 L 37.222656 22.132812 L 37.222656 24.933594 L 37.816406 24.933594 L 37.832031 23.972656 C 37.84375 22.921875 37.855469 22.894531 38.152344 22.667969 C 38.304688 22.554688 38.648438 22.550781 38.808594 22.65625 C 39.027344 22.804688 39.0625 22.960938 39.0625 23.992188 L 39.0625 24.933594 L 39.667969 24.933594 L 39.648438 23.863281 C 39.628906 22.746094 39.597656 22.582031 39.390625 22.34375 C 39.164062 22.085938 38.496094 22 38.109375 22.175781 Z M 38.109375 22.175781 " fill-opacity="1" fill-rule="nonzero"/><path fill="#000000" d="M 40.722656 22.207031 C 40.292969 22.421875 40.074219 22.789062 40.039062 23.378906 C 40.003906 23.878906 40.109375 24.261719 40.355469 24.542969 C 40.644531 24.875 40.84375 24.957031 41.335938 24.957031 C 41.691406 24.957031 41.785156 24.9375 42 24.832031 C 42.140625 24.765625 42.316406 24.644531 42.386719 24.570312 L 42.519531 24.429688 L 42.398438 24.332031 C 42.332031 24.28125 42.246094 24.207031 42.210938 24.175781 C 42.160156 24.121094 42.132812 24.128906 42.046875 24.222656 C 41.800781 24.484375 41.21875 24.550781 40.953125 24.351562 C 40.800781 24.242188 40.621094 23.9375 40.621094 23.792969 L 40.621094 23.695312 L 42.566406 23.695312 L 42.542969 23.335938 C 42.507812 22.761719 42.28125 22.359375 41.886719 22.175781 C 41.589844 22.039062 41.027344 22.054688 40.722656 22.207031 Z M 41.664062 22.664062 C 41.800781 22.753906 41.898438 22.902344 41.9375 23.085938 L 41.96875 23.234375 L 41.292969 23.234375 C 40.925781 23.234375 40.621094 23.222656 40.621094 23.203125 C 40.621094 23.183594 40.664062 23.082031 40.714844 22.976562 C 40.898438 22.597656 41.335938 22.453125 41.664062 22.664062 Z M 41.664062 22.664062 " fill-opacity="1" fill-rule="nonzero"/><path fill="#000000" d="M 24.550781 22.152344 C 24.550781 22.160156 24.757812 22.464844 25.003906 22.824219 L 25.460938 23.488281 L 25.3125 23.695312 C 25.132812 23.941406 24.539062 24.796875 24.488281 24.875 C 24.464844 24.917969 24.53125 24.933594 24.800781 24.933594 L 25.144531 24.933594 L 25.429688 24.507812 C 25.585938 24.277344 25.726562 24.066406 25.746094 24.042969 C 25.769531 24.023438 25.917969 24.210938 26.085938 24.46875 L 26.382812 24.933594 L 27.082031 24.933594 L 26.597656 24.226562 C 26.332031 23.835938 26.113281 23.503906 26.113281 23.488281 C 26.113281 23.472656 26.304688 23.1875 26.539062 22.855469 C 26.777344 22.519531 26.984375 22.21875 27.003906 22.1875 C 27.027344 22.144531 26.957031 22.132812 26.695312 22.132812 L 26.359375 22.132812 L 26.09375 22.523438 C 25.945312 22.738281 25.8125 22.921875 25.796875 22.9375 C 25.777344 22.945312 25.628906 22.769531 25.472656 22.546875 L 25.1875 22.132812 L 24.871094 22.132812 C 24.695312 22.132812 24.550781 22.140625 24.550781 22.152344 Z M 24.550781 22.152344 " fill-opacity="1" fill-rule="nonzero"/><path fill="#000000" d="M 36.121094 23.53125 L 36.121094 24.933594 L 36.671875 24.933594 L 36.671875 22.132812 L 36.121094 22.132812 Z M 36.121094 23.53125 " fill-opacity="1" fill-rule="nonzero"/><path fill="#000000" d="M 11.863281 24.65625 C 11.722656 24.769531 11.667969 24.980469 11.738281 25.125 C 11.773438 25.1875 12.007812 25.445312 12.257812 25.699219 L 12.726562 26.171875 L 10.339844 26.171875 C 8.835938 26.171875 7.886719 26.191406 7.78125 26.21875 C 7.570312 26.277344 7.46875 26.417969 7.46875 26.644531 C 7.46875 26.769531 7.5 26.851562 7.585938 26.929688 L 7.695312 27.046875 L 10.1875 27.050781 C 11.5625 27.054688 12.695312 27.054688 12.71875 27.050781 C 12.808594 27.035156 12.714844 27.152344 12.285156 27.574219 C 12.035156 27.828125 11.792969 28.09375 11.757812 28.160156 C 11.566406 28.523438 11.992188 28.894531 12.335938 28.671875 C 12.53125 28.542969 14.082031 26.984375 14.160156 26.84375 C 14.296875 26.578125 14.242188 26.492188 13.242188 25.492188 C 12.378906 24.636719 12.296875 24.566406 12.144531 24.566406 C 12.050781 24.566406 11.933594 24.609375 11.863281 24.65625 Z M 11.863281 24.65625 " fill-opacity="1" fill-rule="nonzero"/><path fill="#000000" d="M 9.234375 28.339844 C 9.273438 29.1875 9.296875 29.320312 9.402344 29.414062 C 9.488281 29.492188 9.601562 29.503906 10.496094 29.515625 C 11.476562 29.527344 11.683594 29.503906 11.722656 29.363281 C 11.730469 29.335938 11.648438 29.265625 11.539062 29.199219 C 11.164062 28.96875 10.988281 28.367188 11.164062 27.933594 C 11.203125 27.84375 11.234375 27.761719 11.234375 27.753906 C 11.234375 27.742188 10.78125 27.734375 10.21875 27.734375 L 9.207031 27.734375 Z M 9.234375 28.339844 " fill-opacity="1" fill-rule="nonzero"/></svg>